<mxfile host="65bd71144e">
    <diagram id="EvOTixsBc87NkfnOTu0f" name="Page-1">
        <mxGraphModel dx="1544" dy="626" grid="1" gridSize="10" guides="1" tooltips="1" connect="1" arrows="1" fold="1" page="1" pageScale="1" pageWidth="1920" pageHeight="1200" math="0" shadow="0">
            <root>
                <mxCell id="0"/>
                <mxCell id="1" parent="0"/>
                <mxCell id="2" value="Vehiculo" style="swimlane;fontStyle=1;align=center;verticalAlign=top;childLayout=stackLayout;horizontal=1;startSize=26;horizontalStack=0;resizeParent=1;resizeParentMax=0;resizeLast=0;collapsible=1;marginBottom=0;" parent="1" vertex="1">
                    <mxGeometry x="1200" y="40" width="350" height="330" as="geometry"/>
                </mxCell>
                <mxCell id="3" value="- marca: String &#10; - estado: Estado &#10;- modelo: String &#10; - topSpeed: double &#10;- cilindraje: double&#10;- numeroPasajeros:int&#10;- tipoCombustible: TipoCombustible&#10;- transmision: Transmision&#10;- revisionTecnicoMecanica: boolean" style="text;strokeColor=none;fillColor=none;align=left;verticalAlign=top;spacingLeft=4;spacingRight=4;overflow=hidden;rotatable=0;points=[[0,0.5],[1,0.5]];portConstraint=eastwest;" parent="2" vertex="1">
                    <mxGeometry y="26" width="350" height="134" as="geometry"/>
                </mxCell>
                <mxCell id="4" value="" style="line;strokeWidth=1;fillColor=none;align=left;verticalAlign=middle;spacingTop=-1;spacingLeft=3;spacingRight=3;rotatable=0;labelPosition=right;points=[];portConstraint=eastwest;strokeColor=inherit;" parent="2" vertex="1">
                    <mxGeometry y="160" width="350" height="8" as="geometry"/>
                </mxCell>
                <mxCell id="5" value="+ getMarca(): String &#10;+ getEstado(): Estado&#10;+ getModelo(): String&#10;+ getTopSpeed(): double&#10;+ getCilindraje(): double&#10;+ getNumeroPasajeros(): int&#10; + getTipoCombustible(): TipoCombustible&#10;+ getTransmision(): Transmision&#10;+ setRevisionTecnica(revisionTecnicoMecanica: boolean): void&#10;+ isRevisionTecnica(): boolean" style="text;strokeColor=none;fillColor=none;align=left;verticalAlign=top;spacingLeft=4;spacingRight=4;overflow=hidden;rotatable=0;points=[[0,0.5],[1,0.5]];portConstraint=eastwest;" parent="2" vertex="1">
                    <mxGeometry y="168" width="350" height="162" as="geometry"/>
                </mxCell>
                <mxCell id="6" value="Cliente" style="swimlane;fontStyle=1;align=center;verticalAlign=top;childLayout=stackLayout;horizontal=1;startSize=26;horizontalStack=0;resizeParent=1;resizeParentMax=0;resizeLast=0;collapsible=1;marginBottom=0;" parent="1" vertex="1">
                    <mxGeometry x="739" y="690" width="160" height="124" as="geometry"/>
                </mxCell>
                <mxCell id="7" value="nombre: tipo String&#10;apellido: tipo String&#10;cedula: tipo String&#10;telefono: tipo String" style="text;strokeColor=none;fillColor=none;align=left;verticalAlign=top;spacingLeft=4;spacingRight=4;overflow=hidden;rotatable=0;points=[[0,0.5],[1,0.5]];portConstraint=eastwest;" parent="6" vertex="1">
                    <mxGeometry y="26" width="160" height="64" as="geometry"/>
                </mxCell>
                <mxCell id="8" value="" style="line;strokeWidth=1;fillColor=none;align=left;verticalAlign=middle;spacingTop=-1;spacingLeft=3;spacingRight=3;rotatable=0;labelPosition=right;points=[];portConstraint=eastwest;strokeColor=inherit;" parent="6" vertex="1">
                    <mxGeometry y="90" width="160" height="8" as="geometry"/>
                </mxCell>
                <mxCell id="9" value="getters and setters" style="text;strokeColor=none;fillColor=none;align=left;verticalAlign=top;spacingLeft=4;spacingRight=4;overflow=hidden;rotatable=0;points=[[0,0.5],[1,0.5]];portConstraint=eastwest;" parent="6" vertex="1">
                    <mxGeometry y="98" width="160" height="26" as="geometry"/>
                </mxCell>
                <mxCell id="10" value="Empleado" style="swimlane;fontStyle=1;align=center;verticalAlign=top;childLayout=stackLayout;horizontal=1;startSize=26;horizontalStack=0;resizeParent=1;resizeParentMax=0;resizeLast=0;collapsible=1;marginBottom=0;" parent="1" vertex="1">
                    <mxGeometry x="150" y="700" width="180" height="170" as="geometry"/>
                </mxCell>
                <mxCell id="11" value="String nombre;&#10; boolean activo;&#10; private String id;" style="text;strokeColor=none;fillColor=none;align=left;verticalAlign=top;spacingLeft=4;spacingRight=4;overflow=hidden;rotatable=0;points=[[0,0.5],[1,0.5]];portConstraint=eastwest;" parent="10" vertex="1">
                    <mxGeometry y="26" width="180" height="44" as="geometry"/>
                </mxCell>
                <mxCell id="12" value="" style="line;strokeWidth=1;fillColor=none;align=left;verticalAlign=middle;spacingTop=-1;spacingLeft=3;spacingRight=3;rotatable=0;labelPosition=right;points=[];portConstraint=eastwest;strokeColor=inherit;" parent="10" vertex="1">
                    <mxGeometry y="70" width="180" height="8" as="geometry"/>
                </mxCell>
                <mxCell id="13" value="List&lt;Transaccion&gt; historialTransacciones;&#10;List&lt;Vehiculo&gt; inventarioVehiculos;&#10;List&lt;Cliente&gt; listaClientes;&#10;List&lt;Alquiler&gt; listaAlquileres;&#10;List&lt;Venta&gt; listaVentas;&#10;List&lt;Compra&gt; listaCompras;" style="text;strokeColor=none;fillColor=none;align=left;verticalAlign=top;spacingLeft=4;spacingRight=4;overflow=hidden;rotatable=0;points=[[0,0.5],[1,0.5]];portConstraint=eastwest;" parent="10" vertex="1">
                    <mxGeometry y="78" width="180" height="92" as="geometry"/>
                </mxCell>
                <mxCell id="14" value="Administrador" style="swimlane;fontStyle=1;align=center;verticalAlign=top;childLayout=stackLayout;horizontal=1;startSize=26;horizontalStack=0;resizeParent=1;resizeParentMax=0;resizeLast=0;collapsible=1;marginBottom=0;" parent="1" vertex="1">
                    <mxGeometry x="180" y="210" width="160" height="114" as="geometry"/>
                </mxCell>
                <mxCell id="15" value="EmpleadoManager empleadoManager&#10;SeguridadManager seguridadManager&#10;ReporteManager reporteManager" style="text;strokeColor=none;fillColor=none;align=left;verticalAlign=top;spacingLeft=4;spacingRight=4;overflow=hidden;rotatable=0;points=[[0,0.5],[1,0.5]];portConstraint=eastwest;" parent="14" vertex="1">
                    <mxGeometry y="26" width="160" height="54" as="geometry"/>
                </mxCell>
                <mxCell id="16" value="" style="line;strokeWidth=1;fillColor=none;align=left;verticalAlign=middle;spacingTop=-1;spacingLeft=3;spacingRight=3;rotatable=0;labelPosition=right;points=[];portConstraint=eastwest;strokeColor=inherit;" parent="14" vertex="1">
                    <mxGeometry y="80" width="160" height="8" as="geometry"/>
                </mxCell>
                <mxCell id="17" value="getters and setters" style="text;strokeColor=none;fillColor=none;align=left;verticalAlign=top;spacingLeft=4;spacingRight=4;overflow=hidden;rotatable=0;points=[[0,0.5],[1,0.5]];portConstraint=eastwest;" parent="14" vertex="1">
                    <mxGeometry y="88" width="160" height="26" as="geometry"/>
                </mxCell>
                <mxCell id="22" value="Venta" style="swimlane;fontStyle=1;align=center;verticalAlign=top;childLayout=stackLayout;horizontal=1;startSize=26;horizontalStack=0;resizeParent=1;resizeParentMax=0;resizeLast=0;collapsible=1;marginBottom=0;" parent="1" vertex="1">
                    <mxGeometry x="290" y="460" width="160" height="124" as="geometry"/>
                </mxCell>
                <mxCell id="23" value="- vehiculo: Vehiculo&#10;- cliente: Cliente&#10; - fechaVenta: LocalDate" style="text;strokeColor=none;fillColor=none;align=left;verticalAlign=top;spacingLeft=4;spacingRight=4;overflow=hidden;rotatable=0;points=[[0,0.5],[1,0.5]];portConstraint=eastwest;" parent="22" vertex="1">
                    <mxGeometry y="26" width="160" height="64" as="geometry"/>
                </mxCell>
                <mxCell id="24" value="" style="line;strokeWidth=1;fillColor=none;align=left;verticalAlign=middle;spacingTop=-1;spacingLeft=3;spacingRight=3;rotatable=0;labelPosition=right;points=[];portConstraint=eastwest;strokeColor=inherit;" parent="22" vertex="1">
                    <mxGeometry y="90" width="160" height="8" as="geometry"/>
                </mxCell>
                <mxCell id="25" value="getters and setters" style="text;strokeColor=none;fillColor=none;align=left;verticalAlign=top;spacingLeft=4;spacingRight=4;overflow=hidden;rotatable=0;points=[[0,0.5],[1,0.5]];portConstraint=eastwest;" parent="22" vertex="1">
                    <mxGeometry y="98" width="160" height="26" as="geometry"/>
                </mxCell>
                <mxCell id="26" value="ReporteManager" style="swimlane;fontStyle=1;align=center;verticalAlign=top;childLayout=stackLayout;horizontal=1;startSize=26;horizontalStack=0;resizeParent=1;resizeParentMax=0;resizeLast=0;collapsible=1;marginBottom=0;" parent="1" vertex="1">
                    <mxGeometry x="220" y="62" width="160" height="100" as="geometry"/>
                </mxCell>
                <mxCell id="28" value="" style="line;strokeWidth=1;fillColor=none;align=left;verticalAlign=middle;spacingTop=-1;spacingLeft=3;spacingRight=3;rotatable=0;labelPosition=right;points=[];portConstraint=eastwest;strokeColor=inherit;" parent="26" vertex="1">
                    <mxGeometry y="26" width="160" height="8" as="geometry"/>
                </mxCell>
                <mxCell id="29" value="generarReporte(empleado:&#10;Empleado, inicio: LocalDate&#10;, fin: LocalDate): void" style="text;strokeColor=none;fillColor=none;align=left;verticalAlign=top;spacingLeft=4;spacingRight=4;overflow=hidden;rotatable=0;points=[[0,0.5],[1,0.5]];portConstraint=eastwest;" parent="26" vertex="1">
                    <mxGeometry y="34" width="160" height="66" as="geometry"/>
                </mxCell>
                <mxCell id="30" value="EmpleadoManager" style="swimlane;fontStyle=1;align=center;verticalAlign=top;childLayout=stackLayout;horizontal=1;startSize=26;horizontalStack=0;resizeParent=1;resizeParentMax=0;resizeLast=0;collapsible=1;marginBottom=0;" parent="1" vertex="1">
                    <mxGeometry x="150" y="910" width="160" height="60" as="geometry"/>
                </mxCell>
                <mxCell id="32" value="" style="line;strokeWidth=1;fillColor=none;align=left;verticalAlign=middle;spacingTop=-1;spacingLeft=3;spacingRight=3;rotatable=0;labelPosition=right;points=[];portConstraint=eastwest;strokeColor=inherit;" parent="30" vertex="1">
                    <mxGeometry y="26" width="160" height="8" as="geometry"/>
                </mxCell>
                <mxCell id="33" value="List&lt;Empleado&gt; empleados" style="text;strokeColor=none;fillColor=none;align=left;verticalAlign=top;spacingLeft=4;spacingRight=4;overflow=hidden;rotatable=0;points=[[0,0.5],[1,0.5]];portConstraint=eastwest;" parent="30" vertex="1">
                    <mxGeometry y="34" width="160" height="26" as="geometry"/>
                </mxCell>
                <mxCell id="34" value="SeguridadManager" style="swimlane;fontStyle=1;align=center;verticalAlign=top;childLayout=stackLayout;horizontal=1;startSize=26;horizontalStack=0;resizeParent=1;resizeParentMax=0;resizeLast=0;collapsible=1;marginBottom=0;" parent="1" vertex="1">
                    <mxGeometry x="480" y="910" width="190" height="80" as="geometry"/>
                </mxCell>
                <mxCell id="36" value="" style="line;strokeWidth=1;fillColor=none;align=left;verticalAlign=middle;spacingTop=-1;spacingLeft=3;spacingRight=3;rotatable=0;labelPosition=right;points=[];portConstraint=eastwest;strokeColor=inherit;" parent="34" vertex="1">
                    <mxGeometry y="26" width="190" height="8" as="geometry"/>
                </mxCell>
                <mxCell id="37" value="Map&lt;String, String&gt; preguntasSeguridad;&#10;Map&lt;String, String&gt; credenciales;" style="text;strokeColor=none;fillColor=none;align=left;verticalAlign=top;spacingLeft=4;spacingRight=4;overflow=hidden;rotatable=0;points=[[0,0.5],[1,0.5]];portConstraint=eastwest;" parent="34" vertex="1">
                    <mxGeometry y="34" width="190" height="46" as="geometry"/>
                </mxCell>
                <mxCell id="38" value="VehiculoMaletero" style="swimlane;fontStyle=1;align=center;verticalAlign=top;childLayout=stackLayout;horizontal=1;startSize=26;horizontalStack=0;resizeParent=1;resizeParentMax=0;resizeLast=0;collapsible=1;marginBottom=0;" parent="1" vertex="1">
                    <mxGeometry x="1700" y="482" width="160" height="120" as="geometry"/>
                </mxCell>
                <mxCell id="39" value="- capacidadMaletero: double &#10;|- numeroPuertas: int" style="text;strokeColor=none;fillColor=none;align=left;verticalAlign=top;spacingLeft=4;spacingRight=4;overflow=hidden;rotatable=0;points=[[0,0.5],[1,0.5]];portConstraint=eastwest;" parent="38" vertex="1">
                    <mxGeometry y="26" width="160" height="44" as="geometry"/>
                </mxCell>
                <mxCell id="40" value="" style="line;strokeWidth=1;fillColor=none;align=left;verticalAlign=middle;spacingTop=-1;spacingLeft=3;spacingRight=3;rotatable=0;labelPosition=right;points=[];portConstraint=eastwest;strokeColor=inherit;" parent="38" vertex="1">
                    <mxGeometry y="70" width="160" height="8" as="geometry"/>
                </mxCell>
                <mxCell id="41" value="+ getCapacidadMaletero(): double&#10; + getNumeroPuertas(): int" style="text;strokeColor=none;fillColor=none;align=left;verticalAlign=top;spacingLeft=4;spacingRight=4;overflow=hidden;rotatable=0;points=[[0,0.5],[1,0.5]];portConstraint=eastwest;" parent="38" vertex="1">
                    <mxGeometry y="78" width="160" height="42" as="geometry"/>
                </mxCell>
                <mxCell id="42" value="SUV" style="swimlane;fontStyle=1;align=center;verticalAlign=top;childLayout=stackLayout;horizontal=1;startSize=26;horizontalStack=0;resizeParent=1;resizeParentMax=0;resizeLast=0;collapsible=1;marginBottom=0;" parent="1" vertex="1">
                    <mxGeometry x="1480" y="530" width="190" height="320" as="geometry"/>
                </mxCell>
                <mxCell id="43" value="- aireAcondicionado: boolean|&#10;- camaraReversa: boolean &#10;- controlCrucero: boolean &#10; - airbags: int&#10;- abs: boolean&#10;- sensorColision: boolean &#10;- sensorTrafico: boolean &#10;- asistentePermanencia: boolean&#10;- traccion4x4: boolean" style="text;strokeColor=none;fillColor=none;align=left;verticalAlign=top;spacingLeft=4;spacingRight=4;overflow=hidden;rotatable=0;points=[[0,0.5],[1,0.5]];portConstraint=eastwest;" parent="42" vertex="1">
                    <mxGeometry y="26" width="190" height="144" as="geometry"/>
                </mxCell>
                <mxCell id="44" value="" style="line;strokeWidth=1;fillColor=none;align=left;verticalAlign=middle;spacingTop=-1;spacingLeft=3;spacingRight=3;rotatable=0;labelPosition=right;points=[];portConstraint=eastwest;strokeColor=inherit;" parent="42" vertex="1">
                    <mxGeometry y="170" width="190" height="8" as="geometry"/>
                </mxCell>
                <mxCell id="45" value="+ isAireAcondicionado(): boolean &#10;+ isCamaraReversa(): boolean&#10;+ isControlCrucero(): boolean &#10;+ getAirbags(): int&#10;+ isAbs(): boolean&#10;+ isSensorColision(): boolean&#10;+ isSensorTrafico(): boolean&#10;+ isAsistentePermanencia(): boolean &#10;+ isTraccion4x4(): boolean" style="text;strokeColor=none;fillColor=none;align=left;verticalAlign=top;spacingLeft=4;spacingRight=4;overflow=hidden;rotatable=0;points=[[0,0.5],[1,0.5]];portConstraint=eastwest;" parent="42" vertex="1">
                    <mxGeometry y="178" width="190" height="142" as="geometry"/>
                </mxCell>
                <mxCell id="47" value="Sedan" style="swimlane;fontStyle=1;align=center;verticalAlign=top;childLayout=stackLayout;horizontal=1;startSize=26;horizontalStack=0;resizeParent=1;resizeParentMax=0;resizeLast=0;collapsible=1;marginBottom=0;" parent="1" vertex="1">
                    <mxGeometry x="1230" y="560" width="220" height="290" as="geometry"/>
                </mxCell>
                <mxCell id="48" value="- aireAcondicionado: boolean&#10;- camaraReversa: boolean &#10;- controlCrucero: boolean &#10;- airbags: int &#10;- abs: boolean &#10;- sensorColision: boolean &#10;- sensorTrafico: boolean &#10;- asistentePermanencia: boolean" style="text;strokeColor=none;fillColor=none;align=left;verticalAlign=top;spacingLeft=4;spacingRight=4;overflow=hidden;rotatable=0;points=[[0,0.5],[1,0.5]];portConstraint=eastwest;" parent="47" vertex="1">
                    <mxGeometry y="26" width="220" height="134" as="geometry"/>
                </mxCell>
                <mxCell id="49" value="" style="line;strokeWidth=1;fillColor=none;align=left;verticalAlign=middle;spacingTop=-1;spacingLeft=3;spacingRight=3;rotatable=0;labelPosition=right;points=[];portConstraint=eastwest;strokeColor=inherit;" parent="47" vertex="1">
                    <mxGeometry y="160" width="220" height="8" as="geometry"/>
                </mxCell>
                <mxCell id="50" value="+ isAireAcondicionado(): boolean &#10;+ isCamaraReversa(): boolean &#10;  | + isControlCrucero(): boolean &#10;  | + getAirbags(): int &#10;  | + isAbs(): boolean &#10;  | + isSensorColision(): boolean &#10;  | + isSensorTrafico(): boolean &#10;  | + isAsistentePermanencia(): boolean" style="text;strokeColor=none;fillColor=none;align=left;verticalAlign=top;spacingLeft=4;spacingRight=4;overflow=hidden;rotatable=0;points=[[0,0.5],[1,0.5]];portConstraint=eastwest;" parent="47" vertex="1">
                    <mxGeometry y="168" width="220" height="122" as="geometry"/>
                </mxCell>
                <mxCell id="51" value="Vans" style="swimlane;fontStyle=1;align=center;verticalAlign=top;childLayout=stackLayout;horizontal=1;startSize=26;horizontalStack=0;resizeParent=1;resizeParentMax=0;resizeLast=0;collapsible=1;marginBottom=0;" parent="1" vertex="1">
                    <mxGeometry x="1750" y="720" width="180" height="200" as="geometry"/>
                </mxCell>
                <mxCell id="52" value="- bolsasAire: int&#10;- aireAcondicionado: boolean&#10;- camaraReversa: boolean&#10;- numeroBolsasAire: int&#10; abs: boolean" style="text;strokeColor=none;fillColor=none;align=left;verticalAlign=top;spacingLeft=4;spacingRight=4;overflow=hidden;rotatable=0;points=[[0,0.5],[1,0.5]];portConstraint=eastwest;" parent="51" vertex="1">
                    <mxGeometry y="26" width="180" height="74" as="geometry"/>
                </mxCell>
                <mxCell id="53" value="" style="line;strokeWidth=1;fillColor=none;align=left;verticalAlign=middle;spacingTop=-1;spacingLeft=3;spacingRight=3;rotatable=0;labelPosition=right;points=[];portConstraint=eastwest;strokeColor=inherit;" parent="51" vertex="1">
                    <mxGeometry y="100" width="180" height="8" as="geometry"/>
                </mxCell>
                <mxCell id="54" value="+ isAireAcondicionado(): boolean |&#10;    | + isCamaraReversa(): boolean    |&#10;    | + getNumeroBolsasAire(): int    |&#10;    | + isAbs(): boolean" style="text;strokeColor=none;fillColor=none;align=left;verticalAlign=top;spacingLeft=4;spacingRight=4;overflow=hidden;rotatable=0;points=[[0,0.5],[1,0.5]];portConstraint=eastwest;" parent="51" vertex="1">
                    <mxGeometry y="108" width="180" height="92" as="geometry"/>
                </mxCell>
                <mxCell id="55" value="Buses" style="swimlane;fontStyle=1;align=center;verticalAlign=top;childLayout=stackLayout;horizontal=1;startSize=26;horizontalStack=0;resizeParent=1;resizeParentMax=0;resizeLast=0;collapsible=1;marginBottom=0;" parent="1" vertex="1">
                    <mxGeometry x="1970" y="20" width="190" height="220" as="geometry"/>
                </mxCell>
                <mxCell id="56" value="- aireAcondicionado: boolean &#10;- camaraReversa: boolean&#10;- airBags: int&#10;- abs: boolean&#10;- numeroEjes: int&#10;- numeroSalidasEmergencia: int" style="text;strokeColor=none;fillColor=none;align=left;verticalAlign=top;spacingLeft=4;spacingRight=4;overflow=hidden;rotatable=0;points=[[0,0.5],[1,0.5]];portConstraint=eastwest;" parent="55" vertex="1">
                    <mxGeometry y="26" width="190" height="94" as="geometry"/>
                </mxCell>
                <mxCell id="57" value="" style="line;strokeWidth=1;fillColor=none;align=left;verticalAlign=middle;spacingTop=-1;spacingLeft=3;spacingRight=3;rotatable=0;labelPosition=right;points=[];portConstraint=eastwest;strokeColor=inherit;" parent="55" vertex="1">
                    <mxGeometry y="120" width="190" height="8" as="geometry"/>
                </mxCell>
                <mxCell id="58" value="+ isAireAcondicionado(): boolean &#10;+ isCamaraReversa(): boolean &#10;+ getAirBags(): int  &#10;+ isAbs(): boolean&#10;+ getNumeroEjes(): int&#10;+ getNumeroSalidasEmergencia(): int" style="text;strokeColor=none;fillColor=none;align=left;verticalAlign=top;spacingLeft=4;spacingRight=4;overflow=hidden;rotatable=0;points=[[0,0.5],[1,0.5]];portConstraint=eastwest;" parent="55" vertex="1">
                    <mxGeometry y="128" width="190" height="92" as="geometry"/>
                </mxCell>
                <mxCell id="59" value="Transaccion" style="swimlane;fontStyle=1;align=center;verticalAlign=top;childLayout=stackLayout;horizontal=1;startSize=26;horizontalStack=0;resizeParent=1;resizeParentMax=0;resizeLast=0;collapsible=1;marginBottom=0;" parent="1" vertex="1">
                    <mxGeometry x="480" y="690" width="160" height="124" as="geometry"/>
                </mxCell>
                <mxCell id="60" value=" - tipo: TipoTransaccion &#10;- vehiculo: Vehiculo-&#10; cliente: Cliente &#10;- fecha: LocalDate" style="text;strokeColor=none;fillColor=none;align=left;verticalAlign=top;spacingLeft=4;spacingRight=4;overflow=hidden;rotatable=0;points=[[0,0.5],[1,0.5]];portConstraint=eastwest;" parent="59" vertex="1">
                    <mxGeometry y="26" width="160" height="64" as="geometry"/>
                </mxCell>
                <mxCell id="61" value="" style="line;strokeWidth=1;fillColor=none;align=left;verticalAlign=middle;spacingTop=-1;spacingLeft=3;spacingRight=3;rotatable=0;labelPosition=right;points=[];portConstraint=eastwest;strokeColor=inherit;" parent="59" vertex="1">
                    <mxGeometry y="90" width="160" height="8" as="geometry"/>
                </mxCell>
                <mxCell id="62" value="+ getters and setters" style="text;strokeColor=none;fillColor=none;align=left;verticalAlign=top;spacingLeft=4;spacingRight=4;overflow=hidden;rotatable=0;points=[[0,0.5],[1,0.5]];portConstraint=eastwest;" parent="59" vertex="1">
                    <mxGeometry y="98" width="160" height="26" as="geometry"/>
                </mxCell>
                <mxCell id="65" value="" style="endArrow=block;startArrow=block;endFill=1;startFill=1;html=1;exitX=1;exitY=0.5;exitDx=0;exitDy=0;entryX=0;entryY=0.5;entryDx=0;entryDy=0;" parent="1" source="60" target="7" edge="1">
                    <mxGeometry width="160" relative="1" as="geometry">
                        <mxPoint x="720" y="790" as="sourcePoint"/>
                        <mxPoint x="880" y="790" as="targetPoint"/>
                    </mxGeometry>
                </mxCell>
                <mxCell id="66" value="" style="endArrow=block;startArrow=block;endFill=1;startFill=1;html=1;entryX=-0.017;entryY=0.109;entryDx=0;entryDy=0;exitX=0.5;exitY=0;exitDx=0;exitDy=0;entryPerimeter=0;" parent="1" source="59" target="3" edge="1">
                    <mxGeometry width="160" relative="1" as="geometry">
                        <mxPoint x="600" y="550" as="sourcePoint"/>
                        <mxPoint x="760" y="550" as="targetPoint"/>
                        <Array as="points">
                            <mxPoint x="560" y="550"/>
                            <mxPoint x="920" y="550"/>
                            <mxPoint x="920" y="80"/>
                        </Array>
                    </mxGeometry>
                </mxCell>
                <mxCell id="67" value="" style="endArrow=block;startArrow=block;endFill=1;startFill=1;html=1;" parent="1" edge="1">
                    <mxGeometry width="160" relative="1" as="geometry">
                        <mxPoint x="340" y="742" as="sourcePoint"/>
                        <mxPoint x="470" y="742" as="targetPoint"/>
                    </mxGeometry>
                </mxCell>
                <mxCell id="68" value="" style="endArrow=block;startArrow=block;endFill=1;startFill=1;html=1;exitX=0.5;exitY=0;exitDx=0;exitDy=0;entryX=0;entryY=0.5;entryDx=0;entryDy=0;" parent="1" source="10" target="23" edge="1">
                    <mxGeometry width="160" relative="1" as="geometry">
                        <mxPoint x="220" y="650" as="sourcePoint"/>
                        <mxPoint x="240" y="480" as="targetPoint"/>
                        <Array as="points">
                            <mxPoint x="230" y="518"/>
                        </Array>
                    </mxGeometry>
                </mxCell>
                <mxCell id="70" value="" style="endArrow=block;startArrow=block;endFill=1;startFill=1;html=1;entryX=0.5;entryY=0;entryDx=0;entryDy=0;" parent="1" target="30" edge="1">
                    <mxGeometry width="160" relative="1" as="geometry">
                        <mxPoint x="230" y="880" as="sourcePoint"/>
                        <mxPoint x="380" y="790" as="targetPoint"/>
                    </mxGeometry>
                </mxCell>
                <mxCell id="71" value="Use" style="endArrow=open;endSize=12;dashed=1;html=1;" parent="1" edge="1">
                    <mxGeometry width="160" relative="1" as="geometry">
                        <mxPoint x="310" y="951.89" as="sourcePoint"/>
                        <mxPoint x="470" y="951.89" as="targetPoint"/>
                    </mxGeometry>
                </mxCell>
                <mxCell id="72" value="EmpleadoExeption" style="swimlane;fontStyle=1;align=center;verticalAlign=top;childLayout=stackLayout;horizontal=1;startSize=26;horizontalStack=0;resizeParent=1;resizeParentMax=0;resizeLast=0;collapsible=1;marginBottom=0;" parent="1" vertex="1">
                    <mxGeometry x="150" y="1060" width="160" height="34" as="geometry"/>
                </mxCell>
                <mxCell id="74" value="" style="line;strokeWidth=1;fillColor=none;align=left;verticalAlign=middle;spacingTop=-1;spacingLeft=3;spacingRight=3;rotatable=0;labelPosition=right;points=[];portConstraint=eastwest;strokeColor=inherit;" parent="72" vertex="1">
                    <mxGeometry y="26" width="160" height="8" as="geometry"/>
                </mxCell>
                <mxCell id="76" value="AutenticacionException " style="swimlane;fontStyle=1;align=center;verticalAlign=top;childLayout=stackLayout;horizontal=1;startSize=26;horizontalStack=0;resizeParent=1;resizeParentMax=0;resizeLast=0;collapsible=1;marginBottom=0;" parent="1" vertex="1">
                    <mxGeometry x="470" y="1060" width="160" height="34" as="geometry"/>
                </mxCell>
                <mxCell id="78" value="" style="line;strokeWidth=1;fillColor=none;align=left;verticalAlign=middle;spacingTop=-1;spacingLeft=3;spacingRight=3;rotatable=0;labelPosition=right;points=[];portConstraint=eastwest;strokeColor=inherit;" parent="76" vertex="1">
                    <mxGeometry y="26" width="160" height="8" as="geometry"/>
                </mxCell>
                <mxCell id="80" value="Use" style="endArrow=open;endSize=12;dashed=1;html=1;exitX=1;exitY=0.75;exitDx=0;exitDy=0;entryX=0;entryY=0.75;entryDx=0;entryDy=0;" parent="1" source="72" target="76" edge="1">
                    <mxGeometry width="160" relative="1" as="geometry">
                        <mxPoint x="310" y="1110" as="sourcePoint"/>
                        <mxPoint x="470" y="1110" as="targetPoint"/>
                        <Array as="points">
                            <mxPoint x="430" y="1085"/>
                        </Array>
                    </mxGeometry>
                </mxCell>
                <mxCell id="81" value="" style="endArrow=diamondThin;endFill=0;endSize=24;html=1;exitX=0.5;exitY=0;exitDx=0;exitDy=0;entryX=0.495;entryY=1.024;entryDx=0;entryDy=0;entryPerimeter=0;" parent="1" source="72" target="33" edge="1">
                    <mxGeometry width="160" relative="1" as="geometry">
                        <mxPoint x="220" y="1030" as="sourcePoint"/>
                        <mxPoint x="230" y="1000" as="targetPoint"/>
                    </mxGeometry>
                </mxCell>
                <mxCell id="82" value="" style="endArrow=diamondThin;endFill=0;endSize=24;html=1;exitX=0.5;exitY=0;exitDx=0;exitDy=0;" parent="1" edge="1">
                    <mxGeometry width="160" relative="1" as="geometry">
                        <mxPoint x="548.89" y="1056" as="sourcePoint"/>
                        <mxPoint x="548.89" y="996" as="targetPoint"/>
                    </mxGeometry>
                </mxCell>
                <mxCell id="83" value="" style="endArrow=block;startArrow=none;endFill=0;startFill=0;html=1;entryX=0;entryY=0.5;entryDx=0;entryDy=0;" parent="1" target="39" edge="1">
                    <mxGeometry width="160" relative="1" as="geometry">
                        <mxPoint x="1680" y="530" as="sourcePoint"/>
                        <mxPoint x="1270" y="453.75" as="targetPoint"/>
                        <Array as="points">
                            <mxPoint x="1630" y="530"/>
                        </Array>
                    </mxGeometry>
                </mxCell>
                <mxCell id="84" value="" style="endArrow=block;startArrow=none;endFill=0;startFill=0;html=1;entryX=0.193;entryY=1.023;entryDx=0;entryDy=0;entryPerimeter=0;exitX=0.5;exitY=0;exitDx=0;exitDy=0;" parent="1" source="47" target="5" edge="1">
                    <mxGeometry width="160" relative="1" as="geometry">
                        <mxPoint x="1267" y="350" as="sourcePoint"/>
                        <mxPoint x="1400" y="340" as="targetPoint"/>
                    </mxGeometry>
                </mxCell>
                <mxCell id="85" value="" style="endArrow=block;startArrow=none;endFill=0;startFill=0;html=1;exitX=0.25;exitY=0;exitDx=0;exitDy=0;" parent="1" source="51" edge="1">
                    <mxGeometry width="160" relative="1" as="geometry">
                        <mxPoint x="1410" y="553.75" as="sourcePoint"/>
                        <mxPoint x="1795" y="604" as="targetPoint"/>
                        <Array as="points"/>
                    </mxGeometry>
                </mxCell>
                <mxCell id="86" value="" style="endArrow=block;startArrow=none;endFill=0;startFill=0;html=1;entryX=1.011;entryY=0.05;entryDx=0;entryDy=0;exitX=0;exitY=0.122;exitDx=0;exitDy=0;entryPerimeter=0;exitPerimeter=0;" parent="1" source="56" target="2" edge="1">
                    <mxGeometry width="160" relative="1" as="geometry">
                        <mxPoint x="1430" y="89.5" as="sourcePoint"/>
                        <mxPoint x="1590" y="89.5" as="targetPoint"/>
                    </mxGeometry>
                </mxCell>
                <mxCell id="88" value="" style="endArrow=block;startArrow=none;endFill=0;startFill=0;html=1;exitX=0;exitY=0.5;exitDx=0;exitDy=0;" parent="1" source="107" edge="1">
                    <mxGeometry width="160" relative="1" as="geometry">
                        <mxPoint x="1530" y="200" as="sourcePoint"/>
                        <mxPoint x="1560" y="173" as="targetPoint"/>
                        <Array as="points"/>
                    </mxGeometry>
                </mxCell>
                <mxCell id="93" value="&amp;lt;&amp;lt;enumeration&amp;gt;&amp;gt;&lt;br&gt;&lt;b&gt;Transmision&lt;/b&gt;" style="swimlane;fontStyle=0;align=center;verticalAlign=top;childLayout=stackLayout;horizontal=1;startSize=40;horizontalStack=0;resizeParent=1;resizeParentMax=0;resizeLast=0;collapsible=0;marginBottom=0;html=1;" parent="1" vertex="1">
                    <mxGeometry x="670" y="20" width="140" height="70" as="geometry"/>
                </mxCell>
                <mxCell id="94" value="Automatica&lt;br&gt;Manual" style="text;html=1;strokeColor=none;fillColor=none;align=left;verticalAlign=middle;spacingLeft=4;spacingRight=4;overflow=hidden;rotatable=0;points=[[0,0.5],[1,0.5]];portConstraint=eastwest;" parent="93" vertex="1">
                    <mxGeometry y="40" width="140" height="30" as="geometry"/>
                </mxCell>
                <mxCell id="95" value="" style="endArrow=open;html=1;endSize=12;startArrow=none;startSize=14;startFill=0;edgeStyle=orthogonalEdgeStyle;align=left;verticalAlign=bottom;entryX=0.991;entryY=0.004;entryDx=0;entryDy=0;entryPerimeter=0;exitX=0.002;exitY=0.169;exitDx=0;exitDy=0;exitPerimeter=0;" parent="1" source="2" target="94" edge="1">
                    <mxGeometry x="-1" y="3" relative="1" as="geometry">
                        <mxPoint x="910" y="180" as="sourcePoint"/>
                        <mxPoint x="840" y="60" as="targetPoint"/>
                        <Array as="points">
                            <mxPoint x="1200" y="60"/>
                        </Array>
                    </mxGeometry>
                </mxCell>
                <mxCell id="96" value="Pickups" style="swimlane;fontStyle=1;align=center;verticalAlign=top;childLayout=stackLayout;horizontal=1;startSize=26;horizontalStack=0;resizeParent=1;resizeParentMax=0;resizeLast=0;collapsible=1;marginBottom=0;" parent="1" vertex="1">
                    <mxGeometry x="1980" y="540" width="220" height="240" as="geometry"/>
                </mxCell>
                <mxCell id="97" value="- traccion4x4: boolean&#10; - AireAcondicionado: boolean&#10;- camaraReversa: boolean&#10; - numeroAirbags: int&#10;- abs: boolean &#10;- capacidadCajaCarga: int" style="text;strokeColor=none;fillColor=none;align=left;verticalAlign=top;spacingLeft=4;spacingRight=4;overflow=hidden;rotatable=0;points=[[0,0.5],[1,0.5]];portConstraint=eastwest;" parent="96" vertex="1">
                    <mxGeometry y="26" width="220" height="94" as="geometry"/>
                </mxCell>
                <mxCell id="98" value="" style="line;strokeWidth=1;fillColor=none;align=left;verticalAlign=middle;spacingTop=-1;spacingLeft=3;spacingRight=3;rotatable=0;labelPosition=right;points=[];portConstraint=eastwest;strokeColor=inherit;" parent="96" vertex="1">
                    <mxGeometry y="120" width="220" height="8" as="geometry"/>
                </mxCell>
                <mxCell id="99" value="+ isTraccion4x4(): boolean &#10;+ isAireAcondicionado(): boolean &#10;+ isCamaraReversa(): boolean &#10;+ getNumeroAirbags(): int &#10;+ isAbs(): boolean &#10;+ getCapacidadCajaCarga(): int &#10;+ setCapacidadCajaCarga(int): void" style="text;strokeColor=none;fillColor=none;align=left;verticalAlign=top;spacingLeft=4;spacingRight=4;overflow=hidden;rotatable=0;points=[[0,0.5],[1,0.5]];portConstraint=eastwest;" parent="96" vertex="1">
                    <mxGeometry y="128" width="220" height="112" as="geometry"/>
                </mxCell>
                <mxCell id="100" value="" style="endArrow=block;startArrow=none;endFill=0;startFill=0;html=1;exitX=0.25;exitY=0;exitDx=0;exitDy=0;" parent="1" source="96" edge="1">
                    <mxGeometry width="160" relative="1" as="geometry">
                        <mxPoint x="1832.48" y="622.7740000000001" as="sourcePoint"/>
                        <mxPoint x="1860" y="542" as="targetPoint"/>
                        <Array as="points">
                            <mxPoint x="1900" y="542"/>
                        </Array>
                    </mxGeometry>
                </mxCell>
                <mxCell id="101" value="Deportivo" style="swimlane;fontStyle=1;align=center;verticalAlign=top;childLayout=stackLayout;horizontal=1;startSize=26;horizontalStack=0;resizeParent=1;resizeParentMax=0;resizeLast=0;collapsible=1;marginBottom=0;" parent="1" vertex="1">
                    <mxGeometry x="1070" y="470" width="160" height="124" as="geometry"/>
                </mxCell>
                <mxCell id="102" value="- numeroPuertas: int &#10;- airbags: int&#10;- caballos: int&#10;- ceroAcien: String " style="text;strokeColor=none;fillColor=none;align=left;verticalAlign=top;spacingLeft=4;spacingRight=4;overflow=hidden;rotatable=0;points=[[0,0.5],[1,0.5]];portConstraint=eastwest;" parent="101" vertex="1">
                    <mxGeometry y="26" width="160" height="64" as="geometry"/>
                </mxCell>
                <mxCell id="103" value="" style="line;strokeWidth=1;fillColor=none;align=left;verticalAlign=middle;spacingTop=-1;spacingLeft=3;spacingRight=3;rotatable=0;labelPosition=right;points=[];portConstraint=eastwest;strokeColor=inherit;" parent="101" vertex="1">
                    <mxGeometry y="90" width="160" height="8" as="geometry"/>
                </mxCell>
                <mxCell id="104" value="getters" style="text;strokeColor=none;fillColor=none;align=left;verticalAlign=top;spacingLeft=4;spacingRight=4;overflow=hidden;rotatable=0;points=[[0,0.5],[1,0.5]];portConstraint=eastwest;" parent="101" vertex="1">
                    <mxGeometry y="98" width="160" height="26" as="geometry"/>
                </mxCell>
                <mxCell id="105" value="" style="endArrow=block;startArrow=none;endFill=0;startFill=0;html=1;entryX=-0.027;entryY=0.364;entryDx=0;entryDy=0;exitX=0.5;exitY=0;exitDx=0;exitDy=0;entryPerimeter=0;" parent="1" source="101" target="3" edge="1">
                    <mxGeometry width="160" relative="1" as="geometry">
                        <mxPoint x="1277" y="360" as="sourcePoint"/>
                        <mxPoint x="1276.7199999999998" y="137.846" as="targetPoint"/>
                        <Array as="points">
                            <mxPoint x="1150" y="113"/>
                        </Array>
                    </mxGeometry>
                </mxCell>
                <mxCell id="106" value="Camion" style="swimlane;fontStyle=1;align=center;verticalAlign=top;childLayout=stackLayout;horizontal=1;startSize=26;horizontalStack=0;resizeParent=1;resizeParentMax=0;resizeLast=0;collapsible=1;marginBottom=0;" parent="1" vertex="1">
                    <mxGeometry x="1650" y="100" width="140" height="220" as="geometry"/>
                </mxCell>
                <mxCell id="107" value="- capacidadCarga: int&#10;- aireAcondicionado: boolean&#10; - frenosAire: boolean&#10;+ abs: boolean&#10;- numeroEjes: int &#10;- tipoCamion: String" style="text;strokeColor=none;fillColor=none;align=left;verticalAlign=top;spacingLeft=4;spacingRight=4;overflow=hidden;rotatable=0;points=[[0,0.5],[1,0.5]];portConstraint=eastwest;" parent="106" vertex="1">
                    <mxGeometry y="26" width="140" height="94" as="geometry"/>
                </mxCell>
                <mxCell id="108" value="" style="line;strokeWidth=1;fillColor=none;align=left;verticalAlign=middle;spacingTop=-1;spacingLeft=3;spacingRight=3;rotatable=0;labelPosition=right;points=[];portConstraint=eastwest;strokeColor=inherit;" parent="106" vertex="1">
                    <mxGeometry y="120" width="140" height="8" as="geometry"/>
                </mxCell>
                <mxCell id="109" value="+ getCapacidadCarga(): int&#10;+ isAireAcondicionado(): boolean &#10;+ isFrenosAire(): boolean &#10;+ isAbs(): boolean&#10;+ getNumeroEjes(): int&#10;+ getTipoCamion(): String" style="text;strokeColor=none;fillColor=none;align=left;verticalAlign=top;spacingLeft=4;spacingRight=4;overflow=hidden;rotatable=0;points=[[0,0.5],[1,0.5]];portConstraint=eastwest;" parent="106" vertex="1">
                    <mxGeometry y="128" width="140" height="92" as="geometry"/>
                </mxCell>
                <mxCell id="111" value="Concesionario" style="swimlane;fontStyle=1;align=center;verticalAlign=top;childLayout=stackLayout;horizontal=1;startSize=26;horizontalStack=0;resizeParent=1;resizeParentMax=0;resizeLast=0;collapsible=1;marginBottom=0;" parent="1" vertex="1">
                    <mxGeometry x="510" y="148" width="380" height="350" as="geometry"/>
                </mxCell>
                <mxCell id="112" value="+ nombre: String+ &#10;direccion: String- &#10;inventario: List&lt;Vehiculo&gt;&#10;- empleados: List&lt;Empleado&gt;&#10;- transacciones: List&lt;Transaccion&gt;" style="text;strokeColor=none;fillColor=none;align=left;verticalAlign=top;spacingLeft=4;spacingRight=4;overflow=hidden;rotatable=0;points=[[0,0.5],[1,0.5]];portConstraint=eastwest;" parent="111" vertex="1">
                    <mxGeometry y="26" width="380" height="94" as="geometry"/>
                </mxCell>
                <mxCell id="113" value="" style="line;strokeWidth=1;fillColor=none;align=left;verticalAlign=middle;spacingTop=-1;spacingLeft=3;spacingRight=3;rotatable=0;labelPosition=right;points=[];portConstraint=eastwest;strokeColor=inherit;" parent="111" vertex="1">
                    <mxGeometry y="120" width="380" height="8" as="geometry"/>
                </mxCell>
                <mxCell id="114" value="+ agregarVehiculo(vehiculo: Vehiculo): void&#10;+ eliminarVehiculo(vehiculo: Vehiculo): void&#10;+ buscarVehiculosPorMarca(marca: String):&#10; List&lt;Vehiculo&gt;+ getInventario(): List&lt;Vehiculo&gt;&#10;+ agregarEmpleado(empleado: Empleado): void&#10;+ eliminarEmpleado(empleado: Empleado): void&#10;+ buscarEmpleadoPorId(id: String): Empleado&#10;+ getEmpleados(): List&lt;Empleado&gt;&#10;+ registrarTransaccion(transaccion: Transaccion): void&#10;&#10;+ obtenerTransaccionesPorPeriodo(inicio: LocalDate, fin: LocalDate): &#10;List&lt;Transaccion&gt;&#10;+ getTransacciones(): List&lt;Transaccion&gt;" style="text;strokeColor=none;fillColor=none;align=left;verticalAlign=top;spacingLeft=4;spacingRight=4;overflow=hidden;rotatable=0;points=[[0,0.5],[1,0.5]];portConstraint=eastwest;" parent="111" vertex="1">
                    <mxGeometry y="128" width="380" height="222" as="geometry"/>
                </mxCell>
                <mxCell id="115" value="" style="endArrow=diamondThin;endFill=1;endSize=24;html=1;exitX=1;exitY=0.5;exitDx=0;exitDy=0;entryX=0.002;entryY=0.1;entryDx=0;entryDy=0;entryPerimeter=0;" parent="1" source="112" target="5" edge="1">
                    <mxGeometry width="160" relative="1" as="geometry">
                        <mxPoint x="650" y="330" as="sourcePoint"/>
                        <mxPoint x="1210" y="180" as="targetPoint"/>
                        <Array as="points">
                            <mxPoint x="1170" y="221"/>
                        </Array>
                    </mxGeometry>
                </mxCell>
                <mxCell id="116" value="" style="endArrow=diamondThin;endFill=1;endSize=24;html=1;entryX=0.25;entryY=0;entryDx=0;entryDy=0;" parent="1" target="10" edge="1">
                    <mxGeometry width="160" relative="1" as="geometry">
                        <mxPoint x="520" y="400" as="sourcePoint"/>
                        <mxPoint x="190" y="620" as="targetPoint"/>
                        <Array as="points">
                            <mxPoint x="190" y="400"/>
                        </Array>
                    </mxGeometry>
                </mxCell>
                <mxCell id="117" value="" style="endArrow=diamondThin;endFill=1;endSize=24;html=1;entryX=0.25;entryY=0;entryDx=0;entryDy=0;exitX=0.031;exitY=0.997;exitDx=0;exitDy=0;exitPerimeter=0;" parent="1" source="114" target="59" edge="1">
                    <mxGeometry width="160" relative="1" as="geometry">
                        <mxPoint x="520" y="510" as="sourcePoint"/>
                        <mxPoint x="700" y="630" as="targetPoint"/>
                    </mxGeometry>
                </mxCell>
                <mxCell id="119" value="" style="endArrow=open;endFill=1;endSize=12;html=1;entryX=0.25;entryY=0;entryDx=0;entryDy=0;" parent="1" target="6" edge="1">
                    <mxGeometry width="160" relative="1" as="geometry">
                        <mxPoint x="780" y="500" as="sourcePoint"/>
                        <mxPoint x="700" y="630" as="targetPoint"/>
                    </mxGeometry>
                </mxCell>
                <mxCell id="120" value="" style="endArrow=open;endFill=1;endSize=12;html=1;exitX=0;exitY=0.5;exitDx=0;exitDy=0;entryX=1;entryY=0.5;entryDx=0;entryDy=0;" parent="1" source="3" target="7" edge="1">
                    <mxGeometry width="160" relative="1" as="geometry">
                        <mxPoint x="690" y="400" as="sourcePoint"/>
                        <mxPoint x="1000" y="760" as="targetPoint"/>
                        <Array as="points">
                            <mxPoint x="990" y="130"/>
                            <mxPoint x="990" y="729"/>
                        </Array>
                    </mxGeometry>
                </mxCell>
                <mxCell id="121" value="" style="endArrow=diamondThin;endFill=0;endSize=24;html=1;entryX=1;entryY=0.5;entryDx=0;entryDy=0;" parent="1" target="15" edge="1">
                    <mxGeometry width="160" relative="1" as="geometry">
                        <mxPoint x="510" y="264" as="sourcePoint"/>
                        <mxPoint x="470" y="320" as="targetPoint"/>
                    </mxGeometry>
                </mxCell>
                <mxCell id="122" value="" style="endArrow=open;endFill=1;endSize=12;html=1;entryX=-0.018;entryY=-0.174;entryDx=0;entryDy=0;entryPerimeter=0;" parent="1" target="13" edge="1">
                    <mxGeometry width="160" relative="1" as="geometry">
                        <mxPoint x="170" y="283" as="sourcePoint"/>
                        <mxPoint x="460" y="470" as="targetPoint"/>
                        <Array as="points">
                            <mxPoint x="80" y="283"/>
                            <mxPoint x="80" y="755"/>
                        </Array>
                    </mxGeometry>
                </mxCell>
                <mxCell id="124" value="" style="endArrow=open;endFill=1;endSize=12;html=1;exitX=1;exitY=0.815;exitDx=0;exitDy=0;entryX=0;entryY=0;entryDx=0;entryDy=0;exitPerimeter=0;" parent="1" source="15" target="59" edge="1">
                    <mxGeometry width="160" relative="1" as="geometry">
                        <mxPoint x="350" y="550" as="sourcePoint"/>
                        <mxPoint x="510" y="550" as="targetPoint"/>
                        <Array as="points">
                            <mxPoint x="480" y="283"/>
                            <mxPoint x="480" y="480"/>
                        </Array>
                    </mxGeometry>
                </mxCell>
                <mxCell id="125" value="" style="endArrow=open;endFill=1;endSize=12;html=1;exitX=1;exitY=0.5;exitDx=0;exitDy=0;entryX=0;entryY=0.383;entryDx=0;entryDy=0;entryPerimeter=0;" parent="1" source="29" target="112" edge="1">
                    <mxGeometry width="160" relative="1" as="geometry">
                        <mxPoint x="330" y="320" as="sourcePoint"/>
                        <mxPoint x="490" y="320" as="targetPoint"/>
                        <Array as="points">
                            <mxPoint x="440" y="210"/>
                        </Array>
                    </mxGeometry>
                </mxCell>
                <mxCell id="126" value="" style="endArrow=open;endFill=1;endSize=12;html=1;entryX=-0.013;entryY=0.007;entryDx=0;entryDy=0;entryPerimeter=0;" parent="1" source="29" target="11" edge="1">
                    <mxGeometry width="160" relative="1" as="geometry">
                        <mxPoint x="210" y="140" as="sourcePoint"/>
                        <mxPoint x="470" y="360" as="targetPoint"/>
                        <Array as="points">
                            <mxPoint x="60" y="140"/>
                            <mxPoint x="60" y="540"/>
                            <mxPoint x="60" y="726"/>
                        </Array>
                    </mxGeometry>
                </mxCell>
                <mxCell id="127" value="" style="endArrow=open;endFill=1;endSize=12;html=1;exitX=0.833;exitY=1.262;exitDx=0;exitDy=0;exitPerimeter=0;entryX=0;entryY=0.5;entryDx=0;entryDy=0;" parent="1" source="29" target="60" edge="1">
                    <mxGeometry width="160" relative="1" as="geometry">
                        <mxPoint x="360" y="290" as="sourcePoint"/>
                        <mxPoint x="470" y="730" as="targetPoint"/>
                        <Array as="points">
                            <mxPoint x="460" y="260"/>
                            <mxPoint x="470" y="500"/>
                            <mxPoint x="470" y="620"/>
                            <mxPoint x="440" y="729"/>
                        </Array>
                    </mxGeometry>
                </mxCell>
                <mxCell id="128" value="" style="endArrow=open;endFill=1;endSize=12;html=1;exitX=1;exitY=0.5;exitDx=0;exitDy=0;entryX=-0.011;entryY=0.664;entryDx=0;entryDy=0;entryPerimeter=0;" parent="1" target="3" edge="1">
                    <mxGeometry width="160" relative="1" as="geometry">
                        <mxPoint x="380" y="101" as="sourcePoint"/>
                        <mxPoint x="800" y="110" as="targetPoint"/>
                        <Array as="points">
                            <mxPoint x="920" y="120"/>
                            <mxPoint x="1060" y="155"/>
                        </Array>
                    </mxGeometry>
                </mxCell>
                <mxCell id="129" value="Alquiler" style="swimlane;fontStyle=1;align=center;verticalAlign=top;childLayout=stackLayout;horizontal=1;startSize=26;horizontalStack=0;resizeParent=1;resizeParentMax=0;resizeLast=0;collapsible=1;marginBottom=0;" parent="1" vertex="1">
                    <mxGeometry x="710" y="1008" width="160" height="180" as="geometry"/>
                </mxCell>
                <mxCell id="130" value="- vehiculo: Vehiculo &#10;- cliente: Cliente&#10; - fechaInicio: LocalDate &#10;- fechaFin: LocalDate &#10;- activo: boolean" style="text;strokeColor=none;fillColor=none;align=left;verticalAlign=top;spacingLeft=4;spacingRight=4;overflow=hidden;rotatable=0;points=[[0,0.5],[1,0.5]];portConstraint=eastwest;" parent="129" vertex="1">
                    <mxGeometry y="26" width="160" height="84" as="geometry"/>
                </mxCell>
                <mxCell id="131" value="" style="line;strokeWidth=1;fillColor=none;align=left;verticalAlign=middle;spacingTop=-1;spacingLeft=3;spacingRight=3;rotatable=0;labelPosition=right;points=[];portConstraint=eastwest;strokeColor=inherit;" parent="129" vertex="1">
                    <mxGeometry y="110" width="160" height="10" as="geometry"/>
                </mxCell>
                <mxCell id="132" value="getters and setters,  &#10;+ isActivo(): boolean &#10;+ finalizarAlquiler(): void" style="text;strokeColor=none;fillColor=none;align=left;verticalAlign=top;spacingLeft=4;spacingRight=4;overflow=hidden;rotatable=0;points=[[0,0.5],[1,0.5]];portConstraint=eastwest;" parent="129" vertex="1">
                    <mxGeometry y="120" width="160" height="60" as="geometry"/>
                </mxCell>
                <mxCell id="133" value="venta" style="swimlane;fontStyle=1;align=center;verticalAlign=top;childLayout=stackLayout;horizontal=1;startSize=26;horizontalStack=0;resizeParent=1;resizeParentMax=0;resizeLast=0;collapsible=1;marginBottom=0;" parent="1" vertex="1">
                    <mxGeometry x="930" y="910" width="160" height="114" as="geometry"/>
                </mxCell>
                <mxCell id="134" value="- vehiculo: Vehiculo&#10; - cliente: Cliente &#10;- fechaVenta: LocalDate " style="text;strokeColor=none;fillColor=none;align=left;verticalAlign=top;spacingLeft=4;spacingRight=4;overflow=hidden;rotatable=0;points=[[0,0.5],[1,0.5]];portConstraint=eastwest;" parent="133" vertex="1">
                    <mxGeometry y="26" width="160" height="54" as="geometry"/>
                </mxCell>
                <mxCell id="135" value="" style="line;strokeWidth=1;fillColor=none;align=left;verticalAlign=middle;spacingTop=-1;spacingLeft=3;spacingRight=3;rotatable=0;labelPosition=right;points=[];portConstraint=eastwest;strokeColor=inherit;" parent="133" vertex="1">
                    <mxGeometry y="80" width="160" height="8" as="geometry"/>
                </mxCell>
                <mxCell id="136" value="getters and setters" style="text;strokeColor=none;fillColor=none;align=left;verticalAlign=top;spacingLeft=4;spacingRight=4;overflow=hidden;rotatable=0;points=[[0,0.5],[1,0.5]];portConstraint=eastwest;" parent="133" vertex="1">
                    <mxGeometry y="88" width="160" height="26" as="geometry"/>
                </mxCell>
                <mxCell id="137" value="Compra" style="swimlane;fontStyle=1;align=center;verticalAlign=top;childLayout=stackLayout;horizontal=1;startSize=26;horizontalStack=0;resizeParent=1;resizeParentMax=0;resizeLast=0;collapsible=1;marginBottom=0;" parent="1" vertex="1">
                    <mxGeometry x="970" y="770" width="160" height="104" as="geometry"/>
                </mxCell>
                <mxCell id="138" value="- vehiculo: Vehiculo &#10;- cliente: Cliente &#10; - fechaCompra: LocalDate" style="text;strokeColor=none;fillColor=none;align=left;verticalAlign=top;spacingLeft=4;spacingRight=4;overflow=hidden;rotatable=0;points=[[0,0.5],[1,0.5]];portConstraint=eastwest;" parent="137" vertex="1">
                    <mxGeometry y="26" width="160" height="44" as="geometry"/>
                </mxCell>
                <mxCell id="139" value="" style="line;strokeWidth=1;fillColor=none;align=left;verticalAlign=middle;spacingTop=-1;spacingLeft=3;spacingRight=3;rotatable=0;labelPosition=right;points=[];portConstraint=eastwest;strokeColor=inherit;" parent="137" vertex="1">
                    <mxGeometry y="70" width="160" height="8" as="geometry"/>
                </mxCell>
                <mxCell id="140" value="getters and setters" style="text;strokeColor=none;fillColor=none;align=left;verticalAlign=top;spacingLeft=4;spacingRight=4;overflow=hidden;rotatable=0;points=[[0,0.5],[1,0.5]];portConstraint=eastwest;" parent="137" vertex="1">
                    <mxGeometry y="78" width="160" height="26" as="geometry"/>
                </mxCell>
                <mxCell id="141" value="" style="html=1;verticalAlign=bottom;labelBackgroundColor=none;endArrow=blockThin;endFill=0;exitX=0.25;exitY=0;exitDx=0;exitDy=0;entryX=0.84;entryY=1.093;entryDx=0;entryDy=0;entryPerimeter=0;" parent="1" source="129" target="62" edge="1">
                    <mxGeometry width="160" relative="1" as="geometry">
                        <mxPoint x="900" y="960" as="sourcePoint"/>
                        <mxPoint x="1060" y="960" as="targetPoint"/>
                    </mxGeometry>
                </mxCell>
                <mxCell id="142" value="" style="html=1;verticalAlign=bottom;labelBackgroundColor=none;endArrow=blockThin;endFill=0;exitX=0;exitY=0.5;exitDx=0;exitDy=0;entryX=1;entryY=0.5;entryDx=0;entryDy=0;" parent="1" source="136" target="62" edge="1">
                    <mxGeometry width="160" relative="1" as="geometry">
                        <mxPoint x="870" y="1010" as="sourcePoint"/>
                        <mxPoint x="624.3999999999999" y="788.4180000000001" as="targetPoint"/>
                        <Array as="points">
                            <mxPoint x="800" y="890"/>
                        </Array>
                    </mxGeometry>
                </mxCell>
                <mxCell id="143" value="" style="html=1;verticalAlign=bottom;labelBackgroundColor=none;endArrow=blockThin;endFill=0;exitX=0;exitY=0.5;exitDx=0;exitDy=0;entryX=1.014;entryY=1.279;entryDx=0;entryDy=0;entryPerimeter=0;" parent="1" source="138" target="60" edge="1">
                    <mxGeometry width="160" relative="1" as="geometry">
                        <mxPoint x="870" y="1010" as="sourcePoint"/>
                        <mxPoint x="624.3999999999999" y="788.4180000000001" as="targetPoint"/>
                        <Array as="points">
                            <mxPoint x="940" y="860"/>
                            <mxPoint x="820" y="850"/>
                            <mxPoint x="740" y="840"/>
                        </Array>
                    </mxGeometry>
                </mxCell>
                <mxCell id="144" value="" style="endArrow=block;startArrow=none;endFill=0;startFill=0;html=1;entryX=0.637;entryY=1.061;entryDx=0;entryDy=0;entryPerimeter=0;exitX=0.5;exitY=0;exitDx=0;exitDy=0;" parent="1" source="38" target="5" edge="1">
                    <mxGeometry width="160" relative="1" as="geometry">
                        <mxPoint x="1350" y="570" as="sourcePoint"/>
                        <mxPoint x="1277.5499999999997" y="383.7259999999999" as="targetPoint"/>
                        <Array as="points">
                            <mxPoint x="1430" y="482"/>
                        </Array>
                    </mxGeometry>
                </mxCell>
                <mxCell id="145" value="«interface»&lt;br&gt;&lt;b&gt;Maletero&lt;br&gt;&lt;/b&gt;+ getCapacidadMaletero(): double&lt;br&gt;+ getNumeroPuertas(): int" style="html=1;" vertex="1" parent="1">
                    <mxGeometry x="1710" y="1040" width="190" height="90" as="geometry"/>
                </mxCell>
                <mxCell id="146" value="" style="endArrow=block;dashed=1;endFill=0;endSize=12;html=1;entryX=0;entryY=0.25;entryDx=0;entryDy=0;exitX=0.459;exitY=1.069;exitDx=0;exitDy=0;exitPerimeter=0;" edge="1" parent="1" source="45" target="145">
                    <mxGeometry width="160" relative="1" as="geometry">
                        <mxPoint x="1500" y="760" as="sourcePoint"/>
                        <mxPoint x="1660" y="760" as="targetPoint"/>
                        <Array as="points">
                            <mxPoint x="1567" y="1063"/>
                        </Array>
                    </mxGeometry>
                </mxCell>
                <mxCell id="147" value="" style="endArrow=block;dashed=1;endFill=0;endSize=12;html=1;exitX=0.163;exitY=1.027;exitDx=0;exitDy=0;exitPerimeter=0;entryX=0.078;entryY=-0.015;entryDx=0;entryDy=0;entryPerimeter=0;" edge="1" parent="1" source="41" target="145">
                    <mxGeometry width="160" relative="1" as="geometry">
                        <mxPoint x="1500" y="760" as="sourcePoint"/>
                        <mxPoint x="1660" y="760" as="targetPoint"/>
                    </mxGeometry>
                </mxCell>
                <mxCell id="148" value="" style="endArrow=block;dashed=1;endFill=0;endSize=12;html=1;entryX=0.75;entryY=0;entryDx=0;entryDy=0;exitX=0.577;exitY=1.058;exitDx=0;exitDy=0;exitPerimeter=0;" edge="1" parent="1" source="54" target="145">
                    <mxGeometry width="160" relative="1" as="geometry">
                        <mxPoint x="1500" y="760" as="sourcePoint"/>
                        <mxPoint x="1660" y="760" as="targetPoint"/>
                    </mxGeometry>
                </mxCell>
                <mxCell id="149" value="" style="endArrow=block;dashed=1;endFill=0;endSize=12;html=1;exitX=0.603;exitY=1.048;exitDx=0;exitDy=0;exitPerimeter=0;entryX=1;entryY=0.5;entryDx=0;entryDy=0;" edge="1" parent="1" source="99" target="145">
                    <mxGeometry width="160" relative="1" as="geometry">
                        <mxPoint x="1500" y="760" as="sourcePoint"/>
                        <mxPoint x="2130" y="1070" as="targetPoint"/>
                        <Array as="points">
                            <mxPoint x="2120" y="1085"/>
                        </Array>
                    </mxGeometry>
                </mxCell>
            </root>
        </mxGraphModel>
    </diagram>
</mxfile>